<svg width="66" height="25" viewBox="0 0 66 25" fill="none" xmlns="http://www.w3.org/2000/svg">
<g clip-path="url(#clip0_13256_8577)">
<path d="M27.2383 22.5291V8.76401C27.2383 7.54791 27.7106 6.38162 28.5512 5.52171C29.3918 4.6618 30.532 4.17871 31.7209 4.17871L35.6936 4.18438C36.8793 4.18682 38.0157 4.67041 38.8533 5.52902C39.6908 6.38762 40.1611 7.55107 40.1609 8.76401V11.6933C40.1609 12.9095 39.6887 14.0758 38.848 14.9359C38.0074 15.7959 36.8673 16.2791 35.6783 16.2793H30.0632" stroke="#939598" stroke-width="0.545336" stroke-linecap="round" stroke-linejoin="round"/>
<path d="M41.2734 4.17773H42.9969C43.4849 4.17773 43.9529 4.37602 44.2979 4.72897C44.6429 5.08191 44.8368 5.56061 44.8368 6.05975V16.3414" stroke="#939598" stroke-width="0.545336" stroke-linecap="round" stroke-linejoin="round"/>
<path d="M44.4659 2.58511L43.6845 1.78511C43.6384 1.73799 43.6018 1.68204 43.5769 1.62046C43.5519 1.55888 43.5391 1.49287 43.5391 1.4262C43.5391 1.35954 43.5519 1.29353 43.5769 1.23195C43.6018 1.17037 43.6384 1.11442 43.6845 1.0673L44.4659 0.268012C44.5591 0.172687 44.6856 0.119141 44.8174 0.119141C44.9493 0.119141 45.0757 0.172687 45.169 0.268012L45.9497 1.0673C45.9958 1.11442 46.0323 1.17037 46.0573 1.23195C46.0822 1.29353 46.0951 1.35954 46.0951 1.4262C46.0951 1.49287 46.0822 1.55888 46.0573 1.62046C46.0323 1.68204 45.9958 1.73799 45.9497 1.78511L45.1655 2.58511C45.1194 2.63228 45.0646 2.66971 45.0044 2.69524C44.9441 2.72078 44.8795 2.73392 44.8143 2.73392C44.7491 2.73392 44.6845 2.72078 44.6242 2.69524C44.564 2.66971 44.5092 2.63228 44.4631 2.58511" fill="#32BCAD"/>
<path d="M48.1445 4.16895H49.8535C50.7325 4.16857 51.5757 4.52541 52.1976 5.16097L56.1953 9.25026C56.3184 9.3763 56.4645 9.47629 56.6254 9.54452C56.7863 9.61274 56.9587 9.64785 57.1329 9.64785C57.307 9.64785 57.4795 9.61274 57.6404 9.54452C57.8012 9.47629 57.9474 9.3763 58.0705 9.25026L62.0536 5.17656C62.3613 4.86182 62.7267 4.61221 63.1288 4.44199C63.5309 4.27177 63.9619 4.18429 64.3971 4.18453H65.7866" stroke="#939598" stroke-width="0.545336" stroke-linecap="round" stroke-linejoin="round"/>
<path d="M48.1445 16.2518H49.8535C50.7325 16.2521 51.5757 15.8952 52.1976 15.2597L56.1953 11.1704C56.444 10.9162 56.7813 10.7734 57.1329 10.7734C57.4845 10.7734 57.8217 10.9162 58.0705 11.1704L62.0536 15.2449C62.6753 15.8803 63.5182 16.2371 64.3971 16.2369H65.7866" stroke="#939598" stroke-width="0.545336" stroke-linecap="round" stroke-linejoin="round"/>
<path d="M17.05 18.8639C16.6284 18.8655 16.2106 18.7816 15.8209 18.617C15.4311 18.4525 15.0771 18.2105 14.7793 17.9052L11.4993 14.5479C11.3833 14.4344 11.229 14.3711 11.0684 14.3711C10.9079 14.3711 10.7536 14.4344 10.6376 14.5479L7.34647 17.9144C7.04884 18.2202 6.69493 18.4626 6.30518 18.6276C5.91543 18.7927 5.49757 18.8771 5.07574 18.876H4.43359L8.5899 23.1275C9.21326 23.7638 10.0579 24.1212 10.9386 24.1212C11.8192 24.1212 12.6638 23.7638 13.2872 23.1275L17.4518 18.8668L17.05 18.8639Z" fill="#32BCAD"/>
<path d="M5.07644 6.99927C5.49827 6.99812 5.91614 7.0825 6.30589 7.24755C6.69565 7.41259 7.04956 7.65502 7.34716 7.96083L10.6383 11.3281C10.7527 11.4447 10.9076 11.5102 11.0691 11.5102C11.2307 11.5102 11.3856 11.4447 11.5 11.3281L14.7793 7.97358C15.0767 7.6674 15.4305 7.42467 15.8203 7.25948C16.2101 7.0943 16.6281 7.00994 17.0501 7.01131H17.4449L13.2803 2.75126C12.9719 2.43569 12.6057 2.18535 12.2028 2.01456C11.7998 1.84377 11.3678 1.75586 10.9316 1.75586C10.4954 1.75586 10.0635 1.84377 9.66049 2.01456C9.2575 2.18535 8.89136 2.43569 8.58297 2.75126L4.43359 6.99927H5.07644Z" fill="#32BCAD"/>
<path d="M20.8892 10.5358L18.3726 7.96153C18.3158 7.98526 18.2552 7.99777 18.1938 7.99838H17.0495C16.454 7.9999 15.8831 8.24182 15.4611 8.67154L12.1817 12.0239C11.8864 12.3254 11.4862 12.4948 11.0689 12.4948C10.6516 12.4948 10.2514 12.3254 9.95605 12.0239L6.66426 8.65879C6.2423 8.22881 5.67145 7.98663 5.07586 7.98492H3.67103C3.61313 7.98358 3.55591 7.97183 3.502 7.9502L0.969429 10.5358C0.347392 11.1735 -0.00195312 12.0375 -0.00195312 12.9383C-0.00195312 13.8391 0.347392 14.7032 0.969429 15.3408L3.49646 17.9257C3.55026 17.9037 3.60754 17.8919 3.66548 17.891H5.07586C5.67144 17.8892 6.24226 17.6471 6.66426 17.2172L9.95535 13.8506C10.5504 13.2427 11.5874 13.2427 12.1817 13.8506L15.4611 17.2044C15.8831 17.6341 16.454 17.876 17.0495 17.8776H18.1938C18.2552 17.878 18.3159 17.8905 18.3726 17.9144L20.8892 15.3401C21.1977 15.0246 21.4424 14.6501 21.6094 14.2379C21.7764 13.8257 21.8623 13.3838 21.8623 12.9376C21.8623 12.4914 21.7764 12.0496 21.6094 11.6374C21.4424 11.2251 21.1977 10.8506 20.8892 10.5351" fill="#32BCAD"/>
<path d="M30.6567 21.3593C30.4487 21.3686 30.2422 21.4007 30.0409 21.455V22.294C30.1949 22.3492 30.357 22.377 30.5202 22.3762C30.9317 22.3762 31.1264 22.2344 31.1264 21.8638C31.1264 21.5152 30.9671 21.3593 30.6567 21.3593ZM29.9023 22.9182V21.258H30.0153L30.027 21.3289C30.2369 21.2718 30.4518 21.2364 30.6685 21.2233C30.8187 21.2125 30.9677 21.2567 31.089 21.348C31.2275 21.4656 31.2746 21.6555 31.2746 21.8624C31.2746 22.0693 31.2053 22.2833 31.0114 22.396C30.8634 22.4715 30.6995 22.5088 30.5341 22.5044C30.3669 22.5033 30.2007 22.4773 30.0409 22.4272V22.9154L29.9023 22.9182Z" fill="#939598"/>
<path d="M32.3051 21.3543C31.8943 21.3543 31.7107 21.4861 31.7107 21.8567C31.7107 22.2145 31.8915 22.3761 32.3051 22.3761C32.7186 22.3761 32.8974 22.2457 32.8974 21.8758C32.8974 21.518 32.7166 21.3543 32.3051 21.3543ZM32.8343 22.3761C32.6958 22.4767 32.5143 22.5057 32.3051 22.5057C32.0959 22.5057 31.9082 22.4746 31.7745 22.3761C31.6242 22.2677 31.5625 22.0926 31.5625 21.8666C31.5625 21.6406 31.6242 21.4648 31.7745 21.3543C31.9082 21.2558 32.0917 21.2246 32.3051 21.2246C32.5184 21.2246 32.6979 21.2558 32.8343 21.3543C32.9867 21.4648 33.0456 21.6448 33.0456 21.8638C33.0456 22.0827 32.9846 22.2677 32.8343 22.3761Z" fill="#939598"/>
<path d="M34.7809 22.4716L34.3223 21.4647H34.3133L33.8617 22.4716H33.7349L33.25 21.2578H33.4024L33.809 22.2768H33.8187L34.2607 21.2578H34.3874L34.8405 22.2768H34.8502L35.2471 21.2578H35.3974L34.9084 22.4716H34.7809Z" fill="#939598"/>
<path d="M36.2814 21.351C35.9004 21.351 35.7715 21.5246 35.748 21.7762H36.8148C36.803 21.4998 36.6644 21.351 36.2814 21.351ZM36.2765 22.5053C36.0486 22.5053 35.9004 22.4713 35.7826 22.3707C35.6441 22.2481 35.5977 22.0703 35.5977 21.8662C35.5977 21.6621 35.6607 21.4644 35.8186 21.3468C35.9568 21.2579 36.1184 21.2151 36.2814 21.2242C36.4475 21.2139 36.6128 21.2549 36.7559 21.3418C36.927 21.4595 36.9602 21.6664 36.9602 21.9016H35.7445C35.7494 22.1518 35.829 22.3728 36.2897 22.3728C36.4956 22.3673 36.7008 22.3436 36.9027 22.302V22.4295C36.6974 22.4727 36.4888 22.4976 36.2793 22.5039" fill="#939598"/>
<path d="M37.3594 22.4712V21.2574H37.4716L37.4834 21.3282C37.7348 21.263 37.8526 21.2227 38.0736 21.2227H38.0902V21.3573H38.0569C37.8713 21.3573 37.7584 21.3835 37.4979 21.4529V22.4698L37.3594 22.4712Z" fill="#939598"/>
<path d="M38.8946 21.351C38.5143 21.351 38.3848 21.5246 38.3613 21.7762H39.428C39.4163 21.4998 39.2777 21.351 38.8946 21.351ZM38.8898 22.5053C38.6619 22.5053 38.5144 22.4713 38.3966 22.3707C38.258 22.2481 38.2109 22.0703 38.2109 21.8662C38.2109 21.6621 38.2747 21.4644 38.4319 21.3468C38.5701 21.2581 38.7317 21.2153 38.8946 21.2242C39.0608 21.2139 39.2261 21.2549 39.3692 21.3418C39.541 21.4595 39.577 21.6664 39.577 21.9016H38.3564C38.3613 22.1518 38.4409 22.3728 38.9016 22.3728C39.1078 22.3673 39.3131 22.3436 39.5153 22.302V22.4295C39.31 22.4727 39.1014 22.4976 38.8919 22.5039" fill="#939598"/>
<path d="M41.0931 21.4356C40.939 21.3806 40.7769 21.353 40.6137 21.3541C40.2023 21.3541 40.0076 21.4958 40.0076 21.8664C40.0076 22.2171 40.1676 22.3709 40.4773 22.3709C40.6852 22.361 40.8915 22.3295 41.0931 22.2767V21.4356ZM41.1194 22.4715L41.107 22.4007C40.8972 22.4583 40.6823 22.4939 40.4655 22.5069C40.3151 22.5185 40.1657 22.474 40.045 22.3815C39.9065 22.2639 39.8594 22.074 39.8594 21.8678C39.8594 21.651 39.9286 21.4469 40.1226 21.3363C40.2708 21.259 40.4357 21.221 40.602 21.2258C40.7683 21.2282 40.9336 21.2539 41.0931 21.3023V20.7461H41.2316V22.4715H41.1194Z" fill="#939598"/>
<path d="M43.2641 21.359C43.0561 21.3683 42.8497 21.4004 42.6483 21.4547V22.2915C42.802 22.3483 42.9643 22.3769 43.1277 22.3759C43.5391 22.3759 43.7338 22.2341 43.7338 21.8635C43.7338 21.5149 43.5745 21.359 43.2641 21.359ZM43.6188 22.3971C43.471 22.4726 43.3074 22.5098 43.1422 22.5055C42.9615 22.5044 42.7821 22.4735 42.6109 22.4141L42.604 22.4715H42.5098V20.7461H42.6483V21.325C42.8539 21.2712 43.0641 21.2375 43.2759 21.2244C43.4261 21.2136 43.5751 21.2578 43.6964 21.3491C43.8349 21.4667 43.882 21.6566 43.882 21.8635C43.882 22.0705 43.8128 22.2844 43.6188 22.3971Z" fill="#939598"/>
<path d="M44.0663 22.9359V22.8041C44.1356 22.8112 44.1979 22.8162 44.2423 22.8162C44.4141 22.8162 44.5194 22.7652 44.6136 22.566L44.6586 22.4697L44.0352 21.2559H44.1959L44.7272 22.3039H44.7362L45.2412 21.2559H45.3991L44.7313 22.6192C44.6094 22.8665 44.4778 22.948 44.2354 22.948C44.1781 22.9477 44.121 22.9437 44.0642 22.9359" fill="#939598"/>
<path d="M47.3137 21.779H46.8538V22.2041H47.3137C47.631 22.2041 47.7509 22.168 47.7509 21.9915C47.7509 21.8016 47.586 21.779 47.311 21.779H47.3137ZM47.2279 21.093H46.8524V21.5253H47.2306C47.543 21.5253 47.6677 21.487 47.6677 21.307C47.6677 21.1143 47.5098 21.0945 47.2279 21.0945V21.093ZM47.9427 22.3614C47.773 22.472 47.5687 22.4762 47.1953 22.4762H46.4922V20.8252H47.1787C47.5008 20.8252 47.6982 20.8294 47.8624 20.9308C47.9169 20.964 47.9613 21.0123 47.9904 21.07C48.0196 21.1277 48.0323 21.1927 48.0272 21.2574C48.0272 21.4303 47.958 21.5458 47.773 21.6231V21.6323C47.9808 21.6805 48.1138 21.7889 48.1138 22.022C48.119 22.0886 48.1057 22.1553 48.0755 22.2145C48.0452 22.2737 47.9992 22.3229 47.9427 22.3565" fill="#939598"/>
<path d="M49.5179 21.9618C49.3793 21.9498 49.2408 21.9427 49.0905 21.9427C48.8487 21.9427 48.7635 21.993 48.7635 22.1064C48.7635 22.2197 48.8328 22.2693 49.0198 22.2693C49.1878 22.2637 49.3548 22.2399 49.5179 22.1985V21.9618ZM49.5872 22.4713L49.5781 22.4004C49.3681 22.461 49.1519 22.4967 48.9339 22.5067C48.808 22.5154 48.6824 22.4842 48.5744 22.4174C48.528 22.3776 48.4919 22.3265 48.4695 22.2689C48.447 22.2113 48.4389 22.1489 48.4457 22.0873C48.4526 22.0257 48.4742 21.9668 48.5088 21.9158C48.5433 21.8649 48.5897 21.8235 48.6437 21.7953C48.7684 21.7351 48.9353 21.7301 49.0884 21.7301C49.2124 21.7301 49.3793 21.7372 49.5179 21.7471V21.7251C49.5179 21.5352 49.396 21.4729 49.0621 21.4729C48.9332 21.4729 48.7753 21.48 48.625 21.4941V21.249C48.7919 21.2348 48.9803 21.2256 49.1355 21.2256C49.3433 21.2256 49.556 21.2419 49.6897 21.3383C49.8234 21.4346 49.8518 21.5742 49.8518 21.7542V22.4727L49.5872 22.4713Z" fill="#939598"/>
<path d="M51.399 22.4717V21.8021C51.399 21.581 51.2888 21.5016 51.0914 21.5016C50.9275 21.5091 50.7649 21.5347 50.6065 21.5781V22.4724H50.2754V21.2579H50.5455L50.5573 21.3351C50.7639 21.2729 50.9768 21.2358 51.1919 21.2246C51.3379 21.2126 51.483 21.2571 51.5985 21.3493C51.692 21.4357 51.7273 21.5562 51.7273 21.7291V22.4717H51.399Z" fill="#939598"/>
<path d="M52.6648 22.5057C52.5117 22.5057 52.3448 22.4838 52.2229 22.3782C52.0774 22.2577 52.0352 22.0685 52.0352 21.8638C52.0352 21.6717 52.0961 21.462 52.2769 21.3444C52.4252 21.2459 52.608 21.2246 52.7985 21.2246C52.9371 21.2246 53.0687 21.2338 53.2142 21.248V21.508C53.0943 21.496 52.9509 21.4868 52.8359 21.4868C52.5207 21.4868 52.3725 21.5874 52.3725 21.8666C52.3725 22.1281 52.4833 22.2414 52.7417 22.2414C52.9092 22.2358 53.0759 22.215 53.2398 22.1791V22.4285C53.0502 22.4737 52.8567 22.4995 52.6621 22.5057" fill="#939598"/>
<path d="M54.2203 21.479C53.9051 21.479 53.7666 21.5803 53.7666 21.8567C53.7666 22.133 53.9051 22.2506 54.2203 22.2506C54.5355 22.2506 54.6692 22.1522 54.6692 21.8758C54.6692 21.5995 54.5355 21.479 54.2203 21.479ZM54.7891 22.3782C54.6436 22.4788 54.4531 22.5057 54.2203 22.5057C53.9876 22.5057 53.7929 22.4767 53.6495 22.3782C53.4847 22.2677 53.4258 22.0848 53.4258 21.8666C53.4258 21.6483 53.4847 21.462 53.6495 21.3514C53.7929 21.253 53.9827 21.2246 54.2203 21.2246C54.4579 21.2246 54.6436 21.253 54.7891 21.3514C54.9532 21.462 55.01 21.6476 55.01 21.8638C55.01 22.0799 54.9511 22.2677 54.7891 22.3782Z" fill="#939598"/>
<path d="M56.9229 22.5061C56.7234 22.5061 56.5073 22.4721 56.3452 22.3353C56.1526 22.1716 56.0938 21.9194 56.0938 21.648C56.0938 21.4049 56.1693 21.1165 56.42 20.9486C56.6154 20.8189 56.8571 20.792 57.1017 20.792C57.2804 20.792 57.4639 20.804 57.6634 20.821V21.1165C57.4923 21.1024 57.2804 21.0903 57.1162 21.0903C56.6576 21.0903 56.463 21.2682 56.463 21.648C56.463 22.0278 56.6438 22.2078 56.9818 22.2078C57.2234 22.1992 57.4636 22.1662 57.6988 22.1093V22.4026C57.4441 22.4628 57.1842 22.4975 56.9229 22.5061Z" fill="#939598"/>
<path d="M58.673 21.4409C58.3959 21.4409 58.292 21.5422 58.2705 21.7243H59.0699C59.0602 21.5273 58.9473 21.4409 58.673 21.4409ZM58.6231 22.5038C58.4284 22.5038 58.2518 22.4797 58.1202 22.3692C57.9886 22.2586 57.9297 22.0687 57.9297 21.8618C57.9297 21.6769 57.9886 21.47 58.1534 21.3495C58.2989 21.2439 58.4846 21.2227 58.673 21.2227C58.842 21.2227 59.0415 21.2418 59.187 21.3452C59.3775 21.482 59.3948 21.6939 59.3948 21.9433H58.2684C58.2754 22.1289 58.3716 22.2487 58.7055 22.2487C58.9176 22.244 59.129 22.2231 59.338 22.1863V22.4244C59.1021 22.4702 58.8631 22.4968 58.6231 22.5038Z" fill="#939598"/>
<path d="M60.8697 22.4717V21.8021C60.8697 21.581 60.7595 21.5016 60.5621 21.5016C60.3982 21.5091 60.2357 21.5347 60.0772 21.5781V22.4724H59.7461V21.2579H60.0163L60.028 21.3351C60.2346 21.2729 60.4475 21.2358 60.6626 21.2246C60.8086 21.2126 60.9537 21.2571 61.0692 21.3493C61.1627 21.4357 61.198 21.5562 61.198 21.7291V22.4717H60.8697Z" fill="#939598"/>
<path d="M62.1438 22.5052C61.9837 22.5052 61.8383 22.4592 61.7586 22.3316C61.6933 22.2214 61.6628 22.0932 61.6713 21.9646V21.5097H61.4316V21.2574H61.6713L61.7067 20.8896H61.999V21.2574H62.4666V21.5097H61.999V21.8994C61.9946 21.9778 62.0056 22.0564 62.0315 22.1304C62.0669 22.2119 62.1444 22.2431 62.2483 22.2431C62.3278 22.2416 62.4071 22.2335 62.4853 22.219V22.462C62.3725 22.487 62.2577 22.5015 62.1424 22.5052" fill="#939598"/>
<path d="M62.791 22.4714V21.2576H63.0612L63.073 21.3348C63.2625 21.269 63.4604 21.2317 63.6604 21.2243C63.6744 21.2234 63.6886 21.2234 63.7026 21.2243V21.5183C63.6652 21.5183 63.6202 21.5183 63.5876 21.5183C63.4305 21.519 63.2741 21.5399 63.1221 21.5807V22.4771L62.791 22.4714Z" fill="#939598"/>
<path d="M64.9084 21.9618C64.7698 21.9498 64.6313 21.9427 64.4803 21.9427C64.2385 21.9427 64.154 21.993 64.154 22.1064C64.154 22.2197 64.2233 22.2693 64.4096 22.2693C64.5778 22.2637 64.745 22.2399 64.9084 22.1985V21.9618ZM64.9776 22.4713L64.9679 22.4004C64.7579 22.461 64.5417 22.4967 64.3237 22.5067C64.1978 22.5154 64.0722 22.4842 63.9642 22.4174C63.9205 22.3832 63.8857 22.3386 63.8628 22.2875C63.8398 22.2363 63.8295 22.1802 63.8326 22.1241C63.8294 22.055 63.8468 21.9865 63.8826 21.9278C63.9183 21.869 63.9707 21.8228 64.0328 21.7953C64.1575 21.7351 64.3237 21.7301 64.4768 21.7301C64.6015 21.7301 64.7684 21.7372 64.907 21.7471V21.7251C64.907 21.5352 64.7844 21.4729 64.4512 21.4729C64.3216 21.4729 64.1644 21.48 64.0141 21.4941V21.249C64.181 21.2348 64.3687 21.2256 64.5239 21.2256C64.7317 21.2256 64.9444 21.2419 65.0781 21.3383C65.2118 21.4346 65.2402 21.5742 65.2402 21.7542V22.4727L64.9776 22.4713Z" fill="#939598"/>
<path d="M65.6641 20.7461H65.9959V22.4715H65.6641V20.7461Z" fill="#939598"/>
</g>
<defs>
<clipPath id="clip0_13256_8577">
<rect width="66" height="24" fill="white" transform="translate(0 0.119141)"/>
</clipPath>
</defs>
</svg>
